<?xml version="1.0" encoding="UTF-8" standalone="no"?>
<!DOCTYPE svg PUBLIC "-//W3C//DTD SVG 1.1//EN"
 "http://www.w3.org/Graphics/SVG/1.1/DTD/svg11.dtd">
<!-- Generated by graphviz version 2.38.0 (20140413.2041)
 -->
<!-- Title: %3 Pages: 1 -->
<svg width="435pt" height="494pt"
 viewBox="0.00 0.00 434.60 493.74" xmlns="http://www.w3.org/2000/svg" xmlns:xlink="http://www.w3.org/1999/xlink">
<g id="graph0" class="graph" transform="scale(1 1) rotate(0) translate(4 489.74)">
<title>%3</title>
<polygon fill="white" stroke="none" points="-4,4 -4,-489.74 430.597,-489.74 430.597,4 -4,4"/>
<!-- node_15 -->
<g id="node1" class="node"><title>node_15</title>
<ellipse fill="none" stroke="black" cx="163.597" cy="-467.74" rx="41.6928" ry="18"/>
<text text-anchor="middle" x="163.597" y="-464.04" font-family="Times New Roman,serif" font-size="14.00">BLOCK</text>
</g>
<!-- node_14 -->
<g id="node2" class="node"><title>node_14</title>
<ellipse fill="none" stroke="black" cx="163.597" cy="-395.74" rx="28.6953" ry="18"/>
<text text-anchor="middle" x="163.597" y="-392.04" font-family="Times New Roman,serif" font-size="14.00">FUN</text>
</g>
<!-- node_15&#45;&gt;node_14 -->
<g id="edge1" class="edge"><title>node_15&#45;&gt;node_14</title>
<path fill="none" stroke="black" d="M163.597,-449.437C163.597,-441.723 163.597,-432.453 163.597,-423.853"/>
<polygon fill="black" stroke="black" points="167.098,-423.844 163.597,-413.844 160.098,-423.844 167.098,-423.844"/>
</g>
<!-- node_2 -->
<g id="node3" class="node"><title>node_2</title>
<ellipse fill="none" stroke="black" cx="28.5975" cy="-323.74" rx="28.6953" ry="18"/>
<text text-anchor="middle" x="28.5975" y="-320.04" font-family="Times New Roman,serif" font-size="14.00">add5</text>
</g>
<!-- node_14&#45;&gt;node_2 -->
<g id="edge2" class="edge"><title>node_14&#45;&gt;node_2</title>
<path fill="none" stroke="black" d="M142.206,-383.648C119.791,-372.026 84.3825,-353.666 59.0542,-340.532"/>
<polygon fill="black" stroke="black" points="60.3772,-337.276 49.8885,-335.78 57.155,-343.49 60.3772,-337.276"/>
</g>
<!-- node_12 -->
<g id="node4" class="node"><title>node_12</title>
<ellipse fill="none" stroke="black" cx="112.597" cy="-323.74" rx="37.8943" ry="18"/>
<text text-anchor="middle" x="112.597" y="-320.04" font-family="Times New Roman,serif" font-size="14.00">INPUT</text>
</g>
<!-- node_14&#45;&gt;node_12 -->
<g id="edge3" class="edge"><title>node_14&#45;&gt;node_12</title>
<path fill="none" stroke="black" d="M152.279,-379.205C145.924,-370.482 137.845,-359.394 130.639,-349.503"/>
<polygon fill="black" stroke="black" points="133.312,-347.229 124.595,-341.207 127.655,-351.351 133.312,-347.229"/>
</g>
<!-- node_13 -->
<g id="node6" class="node"><title>node_13</title>
<ellipse fill="none" stroke="black" cx="215.597" cy="-323.74" rx="47.3916" ry="18"/>
<text text-anchor="middle" x="215.597" y="-320.04" font-family="Times New Roman,serif" font-size="14.00">OUTPUT</text>
</g>
<!-- node_14&#45;&gt;node_13 -->
<g id="edge5" class="edge"><title>node_14&#45;&gt;node_13</title>
<path fill="none" stroke="black" d="M175.138,-379.205C181.618,-370.482 189.854,-359.394 197.203,-349.503"/>
<polygon fill="black" stroke="black" points="200.211,-351.322 203.365,-341.207 194.592,-347.148 200.211,-351.322"/>
</g>
<!-- node_11 -->
<g id="node8" class="node"><title>node_11</title>
<ellipse fill="none" stroke="black" cx="323.597" cy="-323.74" rx="41.6928" ry="18"/>
<text text-anchor="middle" x="323.597" y="-320.04" font-family="Times New Roman,serif" font-size="14.00">BLOCK</text>
</g>
<!-- node_14&#45;&gt;node_11 -->
<g id="edge7" class="edge"><title>node_14&#45;&gt;node_11</title>
<path fill="none" stroke="black" d="M186.522,-384.711C212.52,-373.337 255.299,-354.621 286.158,-341.12"/>
<polygon fill="black" stroke="black" points="287.562,-344.326 295.321,-337.111 284.756,-337.913 287.562,-344.326"/>
</g>
<!-- node_3 -->
<g id="node5" class="node"><title>node_3</title>
<ellipse fill="none" stroke="black" cx="112.597" cy="-242.87" rx="27" ry="18"/>
<text text-anchor="middle" x="112.597" y="-239.17" font-family="Times New Roman,serif" font-size="14.00">num</text>
</g>
<!-- node_12&#45;&gt;node_3 -->
<g id="edge4" class="edge"><title>node_12&#45;&gt;node_3</title>
<path fill="none" stroke="black" d="M112.597,-305.626C112.597,-295.601 112.597,-282.706 112.597,-271.295"/>
<polygon fill="black" stroke="black" points="116.098,-270.95 112.597,-260.95 109.098,-270.95 116.098,-270.95"/>
</g>
<!-- node_1 -->
<g id="node7" class="node"><title>node_1</title>
<ellipse fill="none" stroke="black" cx="214.597" cy="-242.87" rx="33.2948" ry="18"/>
<text text-anchor="middle" x="214.597" y="-239.17" font-family="Times New Roman,serif" font-size="14.00">added</text>
</g>
<!-- node_13&#45;&gt;node_1 -->
<g id="edge6" class="edge"><title>node_13&#45;&gt;node_1</title>
<path fill="none" stroke="black" d="M215.38,-305.626C215.253,-295.601 215.09,-282.706 214.945,-271.295"/>
<polygon fill="black" stroke="black" points="218.441,-270.905 214.814,-260.95 211.441,-270.994 218.441,-270.905"/>
</g>
<!-- node_10 -->
<g id="node9" class="node"><title>node_10</title>
<ellipse fill="none" stroke="black" cx="324.597" cy="-242.87" rx="58.8803" ry="26.7407"/>
<text text-anchor="middle" x="324.597" y="-246.67" font-family="Times New Roman,serif" font-size="14.00">ASSIGN</text>
<text text-anchor="middle" x="324.597" y="-231.67" font-family="Times New Roman,serif" font-size="14.00">verbosity=0</text>
</g>
<!-- node_11&#45;&gt;node_10 -->
<g id="edge8" class="edge"><title>node_11&#45;&gt;node_10</title>
<path fill="none" stroke="black" d="M323.814,-305.626C323.909,-298.137 324.025,-289.046 324.137,-280.168"/>
<polygon fill="black" stroke="black" points="327.64,-279.997 324.267,-269.953 320.64,-279.908 327.64,-279.997"/>
</g>
<!-- node_4 -->
<g id="node10" class="node"><title>node_4</title>
<ellipse fill="none" stroke="black" cx="285.597" cy="-162" rx="33.2948" ry="18"/>
<text text-anchor="middle" x="285.597" y="-158.3" font-family="Times New Roman,serif" font-size="14.00">added</text>
</g>
<!-- node_10&#45;&gt;node_4 -->
<g id="edge9" class="edge"><title>node_10&#45;&gt;node_4</title>
<path fill="none" stroke="black" d="M312.043,-216.481C307.66,-207.618 302.74,-197.667 298.342,-188.773"/>
<polygon fill="black" stroke="black" points="301.395,-187.052 293.825,-179.639 295.12,-190.154 301.395,-187.052"/>
</g>
<!-- node_9 -->
<g id="node11" class="node"><title>node_9</title>
<ellipse fill="none" stroke="black" cx="363.597" cy="-162" rx="27" ry="18"/>
<text text-anchor="middle" x="363.597" y="-158.3" font-family="Times New Roman,serif" font-size="14.00">&#45;</text>
</g>
<!-- node_10&#45;&gt;node_9 -->
<g id="edge10" class="edge"><title>node_10&#45;&gt;node_9</title>
<path fill="none" stroke="black" d="M337.152,-216.481C341.534,-207.618 346.455,-197.667 350.853,-188.773"/>
<polygon fill="black" stroke="black" points="354.075,-190.154 355.37,-179.639 347.8,-187.052 354.075,-190.154"/>
</g>
<!-- node_7 -->
<g id="node12" class="node"><title>node_7</title>
<ellipse fill="none" stroke="black" cx="327.597" cy="-90" rx="27" ry="18"/>
<text text-anchor="middle" x="327.597" y="-86.3" font-family="Times New Roman,serif" font-size="14.00">+</text>
</g>
<!-- node_9&#45;&gt;node_7 -->
<g id="edge11" class="edge"><title>node_9&#45;&gt;node_7</title>
<path fill="none" stroke="black" d="M355.248,-144.765C350.886,-136.283 345.451,-125.714 340.556,-116.197"/>
<polygon fill="black" stroke="black" points="343.588,-114.439 335.902,-107.147 337.363,-117.641 343.588,-114.439"/>
</g>
<!-- node_8 -->
<g id="node15" class="node"><title>node_8</title>
<ellipse fill="none" stroke="black" cx="399.597" cy="-90" rx="27" ry="18"/>
<text text-anchor="middle" x="399.597" y="-86.3" font-family="Times New Roman,serif" font-size="14.00">1</text>
</g>
<!-- node_9&#45;&gt;node_8 -->
<g id="edge14" class="edge"><title>node_9&#45;&gt;node_8</title>
<path fill="none" stroke="black" d="M371.947,-144.765C376.309,-136.283 381.744,-125.714 386.639,-116.197"/>
<polygon fill="black" stroke="black" points="389.832,-117.641 391.293,-107.147 383.607,-114.439 389.832,-117.641"/>
</g>
<!-- node_5 -->
<g id="node13" class="node"><title>node_5</title>
<ellipse fill="none" stroke="black" cx="291.597" cy="-18" rx="27" ry="18"/>
<text text-anchor="middle" x="291.597" y="-14.3" font-family="Times New Roman,serif" font-size="14.00">num</text>
</g>
<!-- node_7&#45;&gt;node_5 -->
<g id="edge12" class="edge"><title>node_7&#45;&gt;node_5</title>
<path fill="none" stroke="black" d="M319.248,-72.7646C314.886,-64.2831 309.451,-53.7144 304.556,-44.1974"/>
<polygon fill="black" stroke="black" points="307.588,-42.4395 299.902,-35.1473 301.363,-45.6409 307.588,-42.4395"/>
</g>
<!-- node_6 -->
<g id="node14" class="node"><title>node_6</title>
<ellipse fill="none" stroke="black" cx="363.597" cy="-18" rx="27" ry="18"/>
<text text-anchor="middle" x="363.597" y="-14.3" font-family="Times New Roman,serif" font-size="14.00">6</text>
</g>
<!-- node_7&#45;&gt;node_6 -->
<g id="edge13" class="edge"><title>node_7&#45;&gt;node_6</title>
<path fill="none" stroke="black" d="M335.947,-72.7646C340.309,-64.2831 345.744,-53.7144 350.639,-44.1974"/>
<polygon fill="black" stroke="black" points="353.832,-45.6409 355.293,-35.1473 347.607,-42.4395 353.832,-45.6409"/>
</g>
</g>
</svg>
