<?xml version="1.0" encoding="UTF-8" standalone="no"?>
<!DOCTYPE svg PUBLIC "-//W3C//DTD SVG 1.1//EN"
 "http://www.w3.org/Graphics/SVG/1.1/DTD/svg11.dtd">
<!-- Generated by graphviz version 2.38.0 (20140413.2041)
 -->
<!-- Title: %3 Pages: 1 -->
<svg width="542pt" height="408pt"
 viewBox="0.00 0.00 542.00 407.96" xmlns="http://www.w3.org/2000/svg" xmlns:xlink="http://www.w3.org/1999/xlink">
<g id="graph0" class="graph" transform="scale(1 1) rotate(0) translate(4 403.96)">
<title>%3</title>
<polygon fill="white" stroke="none" points="-4,4 -4,-403.96 538,-403.96 538,4 -4,4"/>
<g id="clust1" class="cluster"><title>cluster_7</title>
<polygon fill="none" stroke="black" points="30,-322.22 30,-391.96 453,-391.96 453,-322.22 30,-322.22"/>
</g>
<g id="clust2" class="cluster"><title>cluster_76</title>
<polygon fill="none" stroke="black" points="63,-209.48 63,-302.22 425,-302.22 425,-209.48 63,-209.48"/>
<text text-anchor="middle" x="244" y="-217.28" font-family="Times New Roman,serif" font-size="14.00">Local Workspace</text>
</g>
<g id="clust3" class="cluster"><title>cluster_43</title>
<polygon fill="none" stroke="black" points="8,-108.74 8,-201.48 298,-201.48 298,-108.74 8,-108.74"/>
<text text-anchor="middle" x="153" y="-116.54" font-family="Times New Roman,serif" font-size="14.00">Local Workspace</text>
</g>
<g id="clust5" class="cluster"><title>cluster_69</title>
<polygon fill="none" stroke="black" points="306,-108.74 306,-201.48 524,-201.48 524,-108.74 306,-108.74"/>
<text text-anchor="middle" x="415" y="-116.54" font-family="Times New Roman,serif" font-size="14.00">Local Workspace</text>
</g>
<g id="clust6" class="cluster"><title>cluster_58</title>
<polygon fill="none" stroke="black" points="380,-8 380,-100.74 526,-100.74 526,-8 380,-8"/>
<text text-anchor="middle" x="453" y="-15.8" font-family="Times New Roman,serif" font-size="14.00">Local Workspace</text>
</g>
<!-- base -->
<g id="node1" class="node"><title>base</title>
<ellipse fill="none" stroke="gold" cx="388" cy="-357.09" rx="57.0522" ry="26.7407"/>
<text text-anchor="middle" x="388" y="-360.89" font-family="Times New Roman,serif" font-size="14.00">Base</text>
<text text-anchor="middle" x="388" y="-345.89" font-family="Times New Roman,serif" font-size="14.00">Workspace</text>
</g>
<!-- leaf_7_76 -->
<g id="node7" class="node"><title>leaf_7_76</title>
<ellipse fill="none" stroke="blue" cx="283" cy="-357.09" rx="29.4969" ry="18"/>
<text text-anchor="middle" x="283" y="-353.39" font-family="Times New Roman,serif" font-size="14.00">outer</text>
</g>
<!-- base&#45;&gt;leaf_7_76 -->
<g id="edge6" class="edge"><title>base&#45;&gt;leaf_7_76</title>
<path fill="none" stroke="blue" d="M330.514,-357.09C327.892,-357.09 325.269,-357.09 322.647,-357.09"/>
<polygon fill="blue" stroke="blue" points="322.531,-353.591 312.531,-357.09 322.531,-360.591 322.531,-353.591"/>
</g>
<!-- node_76 -->
<g id="node2" class="node"><title>node_76</title>
<ellipse fill="none" stroke="brown" cx="388" cy="-267.35" rx="29.4969" ry="18"/>
<text text-anchor="middle" x="388" y="-263.65" font-family="Times New Roman,serif" font-size="14.00">outer</text>
</g>
<!-- node_76&#45;&gt;base -->
<!-- leaf_76_43 -->
<g id="node11" class="node"><title>leaf_76_43</title>
<ellipse fill="none" stroke="green" cx="314" cy="-267.35" rx="27" ry="18"/>
<text text-anchor="middle" x="314" y="-263.65" font-family="Times New Roman,serif" font-size="14.00">fun1</text>
</g>
<!-- node_76&#45;&gt;leaf_76_43 -->
<g id="edge10" class="edge"><title>node_76&#45;&gt;leaf_76_43</title>
<path fill="none" stroke="green" d="M358.732,-267.35C356.263,-267.35 353.794,-267.35 351.324,-267.35"/>
<polygon fill="green" stroke="green" points="351.172,-263.85 341.172,-267.35 351.172,-270.85 351.172,-263.85"/>
</g>
<!-- node_43 -->
<g id="node3" class="node"><title>node_43</title>
<ellipse fill="none" stroke="brown" cx="263" cy="-166.61" rx="27" ry="18"/>
<text text-anchor="middle" x="263" y="-162.91" font-family="Times New Roman,serif" font-size="14.00">fun1</text>
</g>
<!-- node_43&#45;&gt;node_76 -->
<g id="edge2" class="edge"><title>node_43&#45;&gt;node_76</title>
<path fill="none" stroke="brown" d="M276.435,-182.595C283.393,-189.423 292.427,-196.972 302,-201.48 321.566,-210.695 331.832,-197.747 350,-209.48 361.534,-216.929 370.401,-229.251 376.657,-240.524"/>
<polygon fill="brown" stroke="brown" points="373.635,-242.302 381.299,-249.616 379.869,-239.118 373.635,-242.302"/>
</g>
<!-- leaf_43_32 -->
<g id="node15" class="node"><title>leaf_43_32</title>
<ellipse fill="none" stroke="green" cx="189" cy="-166.61" rx="28.6953" ry="18"/>
<text text-anchor="middle" x="189" y="-162.91" font-family="Times New Roman,serif" font-size="14.00">funA</text>
</g>
<!-- node_43&#45;&gt;leaf_43_32 -->
<g id="edge14" class="edge"><title>node_43&#45;&gt;leaf_43_32</title>
<path fill="none" stroke="green" d="M235.699,-166.61C233.062,-166.61 230.425,-166.61 227.788,-166.61"/>
<polygon fill="green" stroke="green" points="227.617,-163.11 217.617,-166.61 227.617,-170.11 227.617,-163.11"/>
</g>
<!-- node_32 -->
<g id="node4" class="node"><title>node_32</title>
<ellipse fill="none" stroke="brown" cx="263" cy="-65.8701" rx="28.6953" ry="18"/>
<text text-anchor="middle" x="263" y="-62.1701" font-family="Times New Roman,serif" font-size="14.00">funA</text>
</g>
<!-- node_32&#45;&gt;node_43 -->
<g id="edge3" class="edge"><title>node_32&#45;&gt;node_43</title>
<path fill="none" stroke="brown" d="M263,-84.0693C263,-99.0775 263,-121.111 263,-138.492"/>
<polygon fill="brown" stroke="brown" points="259.5,-138.608 263,-148.608 266.5,-138.608 259.5,-138.608"/>
</g>
<!-- node_69 -->
<g id="node5" class="node"><title>node_69</title>
<ellipse fill="none" stroke="brown" cx="489" cy="-166.61" rx="27" ry="18"/>
<text text-anchor="middle" x="489" y="-162.91" font-family="Times New Roman,serif" font-size="14.00">fun2</text>
</g>
<!-- node_69&#45;&gt;node_76 -->
<g id="edge4" class="edge"><title>node_69&#45;&gt;node_76</title>
<path fill="none" stroke="brown" d="M474.097,-182.18C457.239,-198.66 429.613,-225.668 410.211,-244.636"/>
<polygon fill="brown" stroke="brown" points="407.668,-242.228 402.964,-251.721 412.561,-247.233 407.668,-242.228"/>
</g>
<!-- leaf_69_58 -->
<g id="node18" class="node"><title>leaf_69_58</title>
<ellipse fill="none" stroke="green" cx="415" cy="-166.61" rx="28.6953" ry="18"/>
<text text-anchor="middle" x="415" y="-162.91" font-family="Times New Roman,serif" font-size="14.00">funA</text>
</g>
<!-- node_69&#45;&gt;leaf_69_58 -->
<g id="edge17" class="edge"><title>node_69&#45;&gt;leaf_69_58</title>
<path fill="none" stroke="green" d="M461.699,-166.61C459.062,-166.61 456.425,-166.61 453.788,-166.61"/>
<polygon fill="green" stroke="green" points="453.617,-163.11 443.617,-166.61 453.617,-170.11 453.617,-163.11"/>
</g>
<!-- node_58 -->
<g id="node6" class="node"><title>node_58</title>
<ellipse fill="none" stroke="brown" cx="489" cy="-65.8701" rx="28.6953" ry="18"/>
<text text-anchor="middle" x="489" y="-62.1701" font-family="Times New Roman,serif" font-size="14.00">funA</text>
</g>
<!-- node_58&#45;&gt;node_69 -->
<g id="edge5" class="edge"><title>node_58&#45;&gt;node_69</title>
<path fill="none" stroke="brown" d="M489,-84.0693C489,-99.0775 489,-121.111 489,-138.492"/>
<polygon fill="brown" stroke="brown" points="485.5,-138.608 489,-148.608 492.5,-138.608 485.5,-138.608"/>
</g>
<!-- leaf_58_52 -->
<g id="node20" class="node"><title>leaf_58_52</title>
<ellipse fill="none" stroke="green" cx="415" cy="-65.8701" rx="27" ry="26.7407"/>
<text text-anchor="middle" x="415" y="-69.6701" font-family="Times New Roman,serif" font-size="14.00">d</text>
<text text-anchor="middle" x="415" y="-54.6701" font-family="Times New Roman,serif" font-size="14.00">(P)</text>
</g>
<!-- node_58&#45;&gt;leaf_58_52 -->
<g id="edge19" class="edge"><title>node_58&#45;&gt;leaf_58_52</title>
<path fill="none" stroke="green" d="M460.098,-65.8701C457.484,-65.8701 454.87,-65.8701 452.255,-65.8701"/>
<polygon fill="green" stroke="green" points="452.172,-62.3702 442.172,-65.8701 452.172,-69.3702 452.172,-62.3702"/>
</g>
<!-- leaf_7_4 -->
<g id="node8" class="node"><title>leaf_7_4</title>
<ellipse fill="none" stroke="blue" cx="209" cy="-357.09" rx="27" ry="26.7407"/>
<text text-anchor="middle" x="209" y="-360.89" font-family="Times New Roman,serif" font-size="14.00">a</text>
<text text-anchor="middle" x="209" y="-345.89" font-family="Times New Roman,serif" font-size="14.00">(P)</text>
</g>
<!-- leaf_7_76&#45;&gt;leaf_7_4 -->
<g id="edge7" class="edge"><title>leaf_7_76&#45;&gt;leaf_7_4</title>
<path fill="none" stroke="blue" d="M253.732,-357.09C251.263,-357.09 248.794,-357.09 246.324,-357.09"/>
<polygon fill="blue" stroke="blue" points="246.172,-353.591 236.172,-357.09 246.172,-360.591 246.172,-353.591"/>
</g>
<!-- leaf_7_8 -->
<g id="node9" class="node"><title>leaf_7_8</title>
<ellipse fill="none" stroke="blue" cx="137" cy="-357.09" rx="27" ry="26.7407"/>
<text text-anchor="middle" x="137" y="-360.89" font-family="Times New Roman,serif" font-size="14.00">b</text>
<text text-anchor="middle" x="137" y="-345.89" font-family="Times New Roman,serif" font-size="14.00">(P)</text>
</g>
<!-- leaf_7_4&#45;&gt;leaf_7_8 -->
<g id="edge8" class="edge"><title>leaf_7_4&#45;&gt;leaf_7_8</title>
<path fill="none" stroke="blue" d="M181.93,-357.09C179.315,-357.09 176.7,-357.09 174.085,-357.09"/>
<polygon fill="blue" stroke="blue" points="174,-353.591 164,-357.09 174,-360.591 174,-353.591"/>
</g>
<!-- leaf_7_11 -->
<g id="node10" class="node"><title>leaf_7_11</title>
<ellipse fill="none" stroke="blue" cx="65" cy="-357.09" rx="27" ry="26.7407"/>
<text text-anchor="middle" x="65" y="-360.89" font-family="Times New Roman,serif" font-size="14.00">e</text>
<text text-anchor="middle" x="65" y="-345.89" font-family="Times New Roman,serif" font-size="14.00">(P)</text>
</g>
<!-- leaf_7_8&#45;&gt;leaf_7_11 -->
<g id="edge9" class="edge"><title>leaf_7_8&#45;&gt;leaf_7_11</title>
<path fill="none" stroke="blue" d="M109.93,-357.09C107.315,-357.09 104.7,-357.09 102.085,-357.09"/>
<polygon fill="blue" stroke="blue" points="102,-353.591 92,-357.09 102,-360.591 102,-353.591"/>
</g>
<!-- leaf_76_69 -->
<g id="node12" class="node"><title>leaf_76_69</title>
<ellipse fill="none" stroke="green" cx="242" cy="-267.35" rx="27" ry="18"/>
<text text-anchor="middle" x="242" y="-263.65" font-family="Times New Roman,serif" font-size="14.00">fun2</text>
</g>
<!-- leaf_76_43&#45;&gt;leaf_76_69 -->
<g id="edge11" class="edge"><title>leaf_76_43&#45;&gt;leaf_76_69</title>
<path fill="none" stroke="green" d="M286.93,-267.35C284.315,-267.35 281.7,-267.35 279.085,-267.35"/>
<polygon fill="green" stroke="green" points="279,-263.85 269,-267.35 279,-270.85 279,-263.85"/>
</g>
<!-- leaf_76_15 -->
<g id="node13" class="node"><title>leaf_76_15</title>
<ellipse fill="none" stroke="green" cx="170" cy="-267.35" rx="27" ry="26.7407"/>
<text text-anchor="middle" x="170" y="-271.15" font-family="Times New Roman,serif" font-size="14.00">a</text>
<text text-anchor="middle" x="170" y="-256.15" font-family="Times New Roman,serif" font-size="14.00">(P)</text>
</g>
<!-- leaf_76_69&#45;&gt;leaf_76_15 -->
<g id="edge12" class="edge"><title>leaf_76_69&#45;&gt;leaf_76_15</title>
<path fill="none" stroke="green" d="M214.93,-267.35C212.315,-267.35 209.7,-267.35 207.085,-267.35"/>
<polygon fill="green" stroke="green" points="207,-263.85 197,-267.35 207,-270.85 207,-263.85"/>
</g>
<!-- leaf_76_70 -->
<g id="node14" class="node"><title>leaf_76_70</title>
<ellipse fill="none" stroke="green" cx="98" cy="-267.35" rx="27" ry="26.7407"/>
<text text-anchor="middle" x="98" y="-271.15" font-family="Times New Roman,serif" font-size="14.00">e</text>
<text text-anchor="middle" x="98" y="-256.15" font-family="Times New Roman,serif" font-size="14.00">(P)</text>
</g>
<!-- leaf_76_15&#45;&gt;leaf_76_70 -->
<g id="edge13" class="edge"><title>leaf_76_15&#45;&gt;leaf_76_70</title>
<path fill="none" stroke="green" d="M142.93,-267.35C140.315,-267.35 137.7,-267.35 135.085,-267.35"/>
<polygon fill="green" stroke="green" points="135,-263.85 125,-267.35 135,-270.85 135,-263.85"/>
</g>
<!-- leaf_43_19 -->
<g id="node16" class="node"><title>leaf_43_19</title>
<ellipse fill="none" stroke="green" cx="115" cy="-166.61" rx="27" ry="26.7407"/>
<text text-anchor="middle" x="115" y="-170.41" font-family="Times New Roman,serif" font-size="14.00">b</text>
<text text-anchor="middle" x="115" y="-155.41" font-family="Times New Roman,serif" font-size="14.00">(P)</text>
</g>
<!-- leaf_43_32&#45;&gt;leaf_43_19 -->
<g id="edge15" class="edge"><title>leaf_43_32&#45;&gt;leaf_43_19</title>
<path fill="none" stroke="green" d="M160.098,-166.61C157.484,-166.61 154.87,-166.61 152.255,-166.61"/>
<polygon fill="green" stroke="green" points="152.172,-163.11 142.172,-166.61 152.172,-170.11 152.172,-163.11"/>
</g>
<!-- leaf_43_22 -->
<g id="node17" class="node"><title>leaf_43_22</title>
<ellipse fill="none" stroke="green" cx="43" cy="-166.61" rx="27" ry="26.7407"/>
<text text-anchor="middle" x="43" y="-170.41" font-family="Times New Roman,serif" font-size="14.00">c</text>
<text text-anchor="middle" x="43" y="-155.41" font-family="Times New Roman,serif" font-size="14.00">(P)</text>
</g>
<!-- leaf_43_19&#45;&gt;leaf_43_22 -->
<g id="edge16" class="edge"><title>leaf_43_19&#45;&gt;leaf_43_22</title>
<path fill="none" stroke="green" d="M87.9297,-166.61C85.3149,-166.61 82.7002,-166.61 80.0854,-166.61"/>
<polygon fill="green" stroke="green" points="80,-163.11 70,-166.61 80,-170.11 80,-163.11"/>
</g>
<!-- leaf_69_45 -->
<g id="node19" class="node"><title>leaf_69_45</title>
<ellipse fill="none" stroke="green" cx="341" cy="-166.61" rx="27" ry="26.7407"/>
<text text-anchor="middle" x="341" y="-170.41" font-family="Times New Roman,serif" font-size="14.00">c</text>
<text text-anchor="middle" x="341" y="-155.41" font-family="Times New Roman,serif" font-size="14.00">(P)</text>
</g>
<!-- leaf_69_58&#45;&gt;leaf_69_45 -->
<g id="edge18" class="edge"><title>leaf_69_58&#45;&gt;leaf_69_45</title>
<path fill="none" stroke="green" d="M386.098,-166.61C383.484,-166.61 380.87,-166.61 378.255,-166.61"/>
<polygon fill="green" stroke="green" points="378.172,-163.11 368.172,-166.61 378.172,-170.11 378.172,-163.11"/>
</g>
</g>
</svg>
